<svg width="122" height="122" viewBox="0 0 122 122" fill="none" xmlns="http://www.w3.org/2000/svg">
<g filter="url(#filter0_d_224_729)">
<rect x="16" y="8" width="90" height="90" rx="45" fill="#FFCC01" shape-rendering="crispEdges"/>
<mask id="mask0_224_729" style="mask-type:alpha" maskUnits="userSpaceOnUse" x="41" y="33" width="40" height="40">
<rect x="41" y="33" width="40" height="40" fill="#D9D9D9"/>
</mask>
<g mask="url(#mask0_224_729)">
<path d="M74.2138 68.6595C70.814 68.6595 67.3943 67.8716 63.9547 66.2959C60.5151 64.7202 57.3472 62.4869 54.4511 59.596C51.5445 56.6894 49.3007 53.5124 47.7198 50.0649C46.1389 46.6174 45.3484 43.1991 45.3484 39.8098C45.3484 39.1133 45.5845 38.525 46.0568 38.045C46.529 37.5649 47.1133 37.3248 47.8098 37.3248H53.9408C54.628 37.3248 55.1963 37.5177 55.6455 37.9034C56.0948 38.289 56.3972 38.8196 56.5526 39.4952L57.6558 44.5235C57.7533 45.135 57.7401 45.6715 57.6163 46.1328C57.4925 46.5942 57.2462 46.9909 56.8774 47.3231L52.6425 51.3327C53.2464 52.3488 53.9075 53.3161 54.6259 54.2346C55.3443 55.1531 56.1542 56.0439 57.0555 56.907C57.9597 57.8402 58.8835 58.674 59.8267 59.4085C60.7699 60.143 61.7452 60.782 62.7524 61.3255L66.8303 57.2192C67.2297 56.8065 67.6849 56.5266 68.196 56.3795C68.707 56.2324 69.2446 56.218 69.8086 56.3363L74.5048 57.3768C75.1896 57.5716 75.7225 57.8981 76.1036 58.3562C76.4846 58.8144 76.6752 59.376 76.6752 60.0411V66.1902C76.6752 66.8867 76.4351 67.4723 75.955 67.9472C75.475 68.422 74.8945 68.6595 74.2138 68.6595Z" fill="#4E240E"/>
</g>
</g>
<defs>
<filter id="filter0_d_224_729" x="0" y="0" width="122" height="122" filterUnits="userSpaceOnUse" color-interpolation-filters="sRGB">
<feFlood flood-opacity="0" result="BackgroundImageFix"/>
<feColorMatrix in="SourceAlpha" type="matrix" values="0 0 0 0 0 0 0 0 0 0 0 0 0 0 0 0 0 0 127 0" result="hardAlpha"/>
<feOffset dy="8"/>
<feGaussianBlur stdDeviation="8"/>
<feComposite in2="hardAlpha" operator="out"/>
<feColorMatrix type="matrix" values="0 0 0 0 0 0 0 0 0 0 0 0 0 0 0 0 0 0 0.25 0"/>
<feBlend mode="normal" in2="BackgroundImageFix" result="effect1_dropShadow_224_729"/>
<feBlend mode="normal" in="SourceGraphic" in2="effect1_dropShadow_224_729" result="shape"/>
</filter>
</defs>
</svg>
