<svg width="80" height="80" viewBox="0 0 80 80" fill="none" xmlns="http://www.w3.org/2000/svg">
<g clip-path="url(#clip0_340_391)">
<path d="M80 40C80 17.9081 62.0919 0 40 0C17.9081 0 0 17.9081 0 40C0 59.9644 14.6252 76.5155 33.7481 79.5141V51.5615H23.5911V40H33.7481V31.1881C33.7481 21.1615 39.7215 15.6267 48.8593 15.6267C53.2385 15.6267 57.8133 16.4089 57.8133 16.4089V26.2519H52.7704C47.8044 26.2519 46.2519 29.3333 46.2519 32.4978V40H57.3452L55.5733 51.5615H46.2519V79.5141C65.3748 76.5155 80 59.9644 80 40Z" fill="#0185FF"/>
<path d="M55.5674 51.5615L57.3393 40H46.2459V32.4978C46.2459 29.3334 47.7926 26.2519 52.7645 26.2519H57.8074V16.4089C57.8074 16.4089 53.2326 15.6267 48.8533 15.6267C39.7156 15.6267 33.7422 21.1615 33.7422 31.1882V40H23.5852V51.5615H33.7422V79.5141C35.7807 79.8341 37.8667 80 39.9941 80C42.1215 80 44.2074 79.8341 46.2459 79.5141V51.5615H55.5674Z" fill="white"/>
</g>
<defs>
<clipPath id="clip0_340_391">
<rect width="80" height="80" fill="white"/>
</clipPath>
</defs>
</svg>
