<svg width="203" height="71" viewBox="0 0 203 71" fill="none" xmlns="http://www.w3.org/2000/svg">
<path d="M0.632 35.4C0.632 27.4 2.04 20.84 4.856 15.72C7.736 10.6 11.544 6.824 16.28 4.392C21.08 1.96 26.36 0.743998 32.12 0.743998C35.256 0.743998 38.072 1.032 40.568 1.608C43.064 2.184 45.176 2.92 46.904 3.816C48.696 4.648 49.976 5.48 50.744 6.31199V23.4H48.728C48.088 22.248 47.064 21.128 45.656 20.04C44.248 18.952 42.584 18.056 40.664 17.352C38.808 16.584 36.76 16.2 34.52 16.2C31 16.2 27.992 16.904 25.496 18.312C23.064 19.72 21.208 21.832 19.928 24.648C18.648 27.464 18.008 31.08 18.008 35.496C18.008 39.656 18.584 43.208 19.736 46.152C20.888 49.032 22.584 51.24 24.824 52.776C27.064 54.312 29.784 55.08 32.984 55.08C33.432 55.08 33.88 55.048 34.328 54.984C34.776 54.92 35.16 54.76 35.48 54.504V42.6H23.96V28.008H50.744V62.184C47.992 64.936 44.824 66.952 41.24 68.232C37.72 69.448 33.88 70.056 29.72 70.056C25.944 70.056 22.328 69.384 18.872 68.04C15.416 66.632 12.312 64.52 9.56 61.704C6.808 58.888 4.632 55.304 3.032 50.952C1.432 46.6 0.632 41.416 0.632 35.4ZM56.6008 35.4C56.6008 27.272 57.9128 20.648 60.5368 15.528C63.1608 10.408 66.5848 6.664 70.8088 4.296C75.0968 1.864 79.7368 0.647999 84.7288 0.647999C89.7208 0.647999 94.3288 1.864 98.5528 4.296C102.841 6.664 106.297 10.408 108.921 15.528C111.545 20.648 112.857 27.272 112.857 35.4C112.857 43.528 111.545 50.152 108.921 55.272C106.297 60.392 102.841 64.168 98.5528 66.6C94.3288 68.968 89.7208 70.152 84.7288 70.152C79.7368 70.152 75.0968 68.968 70.8088 66.6C66.5848 64.168 63.1608 60.392 60.5368 55.272C57.9128 50.152 56.6008 43.528 56.6008 35.4ZM73.9768 35.4C73.9768 39.496 74.4568 42.952 75.4168 45.768C76.3768 48.52 77.6568 50.632 79.2568 52.104C80.9208 53.512 82.7448 54.216 84.7288 54.216C86.7128 54.216 88.5368 53.512 90.2008 52.104C91.8648 50.632 93.1768 48.52 94.1368 45.768C95.0968 42.952 95.5768 39.496 95.5768 35.4C95.5768 31.176 95.0648 27.688 94.0408 24.936C93.0808 22.184 91.7688 20.104 90.1048 18.696C88.5048 17.288 86.7128 16.584 84.7288 16.584C82.7448 16.584 80.9208 17.288 79.2568 18.696C77.6568 20.104 76.3768 22.216 75.4168 25.032C74.4568 27.784 73.9768 31.24 73.9768 35.4ZM118.436 1.8H135.236V53.736H150.5V69H118.436V1.8ZM174.484 1.8C179.796 1.8 184.564 3.016 188.788 5.44799C193.012 7.816 196.372 11.464 198.868 16.392C201.364 21.32 202.612 27.656 202.612 35.4C202.612 43.08 201.364 49.416 198.868 54.408C196.372 59.336 193.012 63.016 188.788 65.448C184.564 67.816 179.796 69 174.484 69H155.092V1.8H174.484ZM174.292 53.064C177.492 53.064 180.116 51.528 182.164 48.456C184.276 45.32 185.332 40.968 185.332 35.4C185.332 29.704 184.276 25.352 182.164 22.344C180.052 19.272 177.428 17.736 174.292 17.736H171.892V53.064H174.292Z" fill="url(#paint0_linear_52_121)"/>
<defs>
<linearGradient id="paint0_linear_52_121" x1="82.5" y1="-16.5" x2="82.5" y2="69" gradientUnits="userSpaceOnUse">
<stop stop-color="#FFCC01"/>
<stop offset="0.516456" stop-color="#FEFAB6"/>
<stop offset="0.635451" stop-color="#F1C100"/>
<stop offset="1" stop-color="#CE7708"/>
</linearGradient>
</defs>
</svg>
