<svg width="80" height="80" viewBox="0 0 80 80" fill="none" xmlns="http://www.w3.org/2000/svg">
<g clip-path="url(#clip0_340_384)">
<path d="M40 80C62.0914 80 80 62.0914 80 40C80 17.9086 62.0914 0 40 0C17.9086 0 0 17.9086 0 40C0 62.0914 17.9086 80 40 80Z" fill="#CC00FF"/>
<path d="M40 19.354C46.7259 19.354 47.52 19.3777 50.1748 19.5021C52.6282 19.6147 53.9615 20.0236 54.8504 20.3673C56.0237 20.8236 56.8652 21.3688 57.7482 22.2517C58.6311 23.1347 59.1763 23.9703 59.6326 25.1495C59.9763 26.0384 60.3852 27.3717 60.4978 29.8251C60.6163 32.4799 60.6459 33.2799 60.6459 39.9999C60.6459 46.7199 60.6222 47.5199 60.4978 50.1747C60.3852 52.628 59.9763 53.9614 59.6326 54.8503C59.1763 56.0236 58.6311 56.8651 57.7482 57.748C56.8652 58.631 56.0296 59.1762 54.8504 59.6325C53.9615 59.9762 52.6282 60.3851 50.1748 60.4977C47.52 60.6162 46.7259 60.6458 40 60.6458C33.2741 60.6458 32.48 60.6221 29.8252 60.4977C27.3719 60.3851 26.0385 59.9762 25.1496 59.6325C23.9763 59.1762 23.1348 58.631 22.2519 57.748C21.3689 56.8651 20.8237 56.0295 20.3674 54.8503C20.0237 53.9614 19.6148 52.628 19.5022 50.1747C19.3837 47.5199 19.3541 46.7199 19.3541 39.9999C19.3541 33.2799 19.3778 32.4799 19.5022 29.8251C19.6148 27.3717 20.0237 26.0384 20.3674 25.1495C20.8237 23.9762 21.3689 23.1347 22.2519 22.2517C23.1348 21.3688 23.9704 20.8236 25.1496 20.3673C26.0385 20.0236 27.3719 19.6147 29.8252 19.5021C32.48 19.3836 33.28 19.354 40 19.354ZM40 14.8147C33.1615 14.8147 32.3022 14.8443 29.6178 14.9688C26.9393 15.0932 25.1082 15.514 23.5022 16.1421C21.8489 16.788 20.4445 17.6473 19.04 19.0458C17.6415 20.4443 16.7763 21.8488 16.1363 23.508C15.5141 25.108 15.0874 26.9391 14.963 29.6236C14.8385 32.308 14.8089 33.1673 14.8089 40.0058C14.8089 46.8443 14.8385 47.7036 14.963 50.388C15.0874 53.0665 15.5082 54.8977 16.1363 56.5036C16.7822 58.1569 17.6415 59.5614 19.04 60.9658C20.4385 62.3643 21.843 63.2295 23.5022 63.8695C25.1022 64.4917 26.9333 64.9184 29.6178 65.0428C32.3022 65.1673 33.1615 65.1969 40 65.1969C46.8385 65.1969 47.6978 65.1673 50.3822 65.0428C53.0607 64.9184 54.8919 64.4977 56.4978 63.8695C58.1511 63.2236 59.5556 62.3643 60.96 60.9658C62.3585 59.5673 63.2237 58.1628 63.8637 56.5036C64.4859 54.9036 64.9126 53.0725 65.037 50.388C65.1615 47.7036 65.1911 46.8443 65.1911 40.0058C65.1911 33.1673 65.1615 32.308 65.037 29.6236C64.9126 26.9451 64.4919 25.114 63.8637 23.508C63.2178 21.8547 62.3585 20.4503 60.96 19.0458C59.5615 17.6473 58.157 16.7821 56.4978 16.1421C54.8978 15.5199 53.0667 15.0932 50.3822 14.9688C47.6978 14.8443 46.8385 14.8147 40 14.8147Z" fill="white"/>
<path d="M40 27.0696C32.8593 27.0696 27.0696 32.8592 27.0696 40C27.0696 47.1407 32.8593 52.9303 40 52.9303C47.1408 52.9303 52.9304 47.1407 52.9304 40C52.9304 32.8592 47.1408 27.0696 40 27.0696ZM40 48.397C35.3659 48.397 31.603 44.6399 31.603 40C31.603 35.36 35.36 31.6029 40 31.6029C44.64 31.6029 48.397 35.36 48.397 40C48.397 44.6399 44.64 48.397 40 48.397Z" fill="white"/>
<path d="M53.4459 29.5762C55.1151 29.5762 56.4682 28.2231 56.4682 26.554C56.4682 24.8848 55.1151 23.5317 53.4459 23.5317C51.7768 23.5317 50.4237 24.8848 50.4237 26.554C50.4237 28.2231 51.7768 29.5762 53.4459 29.5762Z" fill="white"/>
</g>
<defs>
<clipPath id="clip0_340_384">
<rect width="80" height="80" fill="white"/>
</clipPath>
</defs>
</svg>
