<svg width="80" height="80" viewBox="0 0 80 80" fill="none" xmlns="http://www.w3.org/2000/svg">
<g clip-path="url(#clip0_340_408)">
<path d="M40 80C62.0914 80 80 62.0914 80 40C80 17.9086 62.0914 0 40 0C17.9086 0 0 17.9086 0 40C0 62.0914 17.9086 80 40 80Z" fill="#FFCC01"/>
<path d="M40 19.3537C46.7259 19.3537 47.52 19.3774 50.1748 19.5019C52.6281 19.6145 53.9614 20.0233 54.8503 20.367C56.0237 20.8233 56.8651 21.3685 57.7481 22.2515C58.6311 23.1345 59.1762 23.97 59.6325 25.1493C59.9762 26.0382 60.3851 27.3715 60.4977 29.8248C60.6162 32.4796 60.6459 33.2796 60.6459 39.9996C60.6459 46.7196 60.6222 47.5196 60.4977 50.1745C60.3851 52.6278 59.9762 53.9611 59.6325 54.85C59.1762 56.0233 58.6311 56.8648 57.7481 57.7478C56.8651 58.6307 56.0296 59.1759 54.8503 59.6322C53.9614 59.9759 52.6281 60.3848 50.1748 60.4974C47.52 60.6159 46.7259 60.6456 40 60.6456C33.274 60.6456 32.4799 60.6219 29.8251 60.4974C27.3718 60.3848 26.0385 59.9759 25.1496 59.6322C23.9762 59.1759 23.1348 58.6307 22.2518 57.7478C21.3688 56.8648 20.8237 56.0293 20.3674 54.85C20.0237 53.9611 19.6148 52.6278 19.5022 50.1745C19.3837 47.5196 19.354 46.7196 19.354 39.9996C19.354 33.2796 19.3777 32.4796 19.5022 29.8248C19.6148 27.3715 20.0237 26.0382 20.3674 25.1493C20.8237 23.9759 21.3688 23.1345 22.2518 22.2515C23.1348 21.3685 23.9703 20.8233 25.1496 20.367C26.0385 20.0233 27.3718 19.6145 29.8251 19.5019C32.4799 19.3833 33.28 19.3537 40 19.3537ZM40 14.8145C33.1614 14.8145 32.3022 14.8441 29.6177 14.9685C26.9392 15.093 25.1081 15.5137 23.5022 16.1419C21.8488 16.7878 20.4444 17.647 19.0399 19.0456C17.6414 20.4441 16.7762 21.8485 16.1362 23.5078C15.514 25.1078 15.0874 26.9389 14.9629 29.6233C14.8385 32.3078 14.8088 33.167 14.8088 40.0056C14.8088 46.8441 14.8385 47.7033 14.9629 50.3878C15.0874 53.0663 15.5081 54.8974 16.1362 56.5033C16.7822 58.1567 17.6414 59.5611 19.0399 60.9656C20.4385 62.3641 21.8429 63.2293 23.5022 63.8693C25.1022 64.4915 26.9333 64.9182 29.6177 65.0426C32.3022 65.167 33.1614 65.1967 40 65.1967C46.8385 65.1967 47.6977 65.167 50.3822 65.0426C53.0607 64.9182 54.8918 64.4974 56.4977 63.8693C58.1511 63.2233 59.5555 62.3641 60.96 60.9656C62.3585 59.567 63.2237 58.1626 63.8637 56.5033C64.4859 54.9033 64.9125 53.0722 65.037 50.3878C65.1614 47.7033 65.1911 46.8441 65.1911 40.0056C65.1911 33.167 65.1614 32.3078 65.037 29.6233C64.9125 26.9448 64.4918 25.1137 63.8637 23.5078C63.2177 21.8545 62.3585 20.45 60.96 19.0456C59.5614 17.647 58.157 16.7819 56.4977 16.1419C54.8977 15.5196 53.0666 15.093 50.3822 14.9685C47.6977 14.8441 46.8385 14.8145 40 14.8145Z" fill="#4E240E"/>
<path d="M40 27.0693C32.8592 27.0693 27.0696 32.859 27.0696 39.9997C27.0696 47.1404 32.8592 52.9301 40 52.9301C47.1407 52.9301 52.9303 47.1404 52.9303 39.9997C52.9303 32.859 47.1407 27.0693 40 27.0693ZM40 48.3967C35.3659 48.3967 31.6029 44.6397 31.6029 39.9997C31.6029 35.3597 35.36 31.6027 40 31.6027C44.6399 31.6027 48.397 35.3597 48.397 39.9997C48.397 44.6397 44.6399 48.3967 40 48.3967Z" fill="#4E240E"/>
<path d="M53.4459 29.5757C55.1151 29.5757 56.4682 28.2226 56.4682 26.5535C56.4682 24.8843 55.1151 23.5312 53.4459 23.5312C51.7768 23.5312 50.4237 24.8843 50.4237 26.5535C50.4237 28.2226 51.7768 29.5757 53.4459 29.5757Z" fill="#4E240E"/>
</g>
<defs>
<clipPath id="clip0_340_408">
<rect width="80" height="80" fill="white"/>
</clipPath>
</defs>
</svg>
