<svg width="80" height="80" viewBox="0 0 80 80" fill="none" xmlns="http://www.w3.org/2000/svg">
<g clip-path="url(#clip0_340_402)">
<path d="M40 80C62.0914 80 80 62.0914 80 40C80 17.9086 62.0914 0 40 0C17.9086 0 0 17.9086 0 40C0 62.0914 17.9086 80 40 80Z" fill="#FFCC01"/>
<path d="M43.0934 34.5423C43.7511 33.8016 44.2904 33.0549 44.9659 32.4209C47.04 30.4653 49.4934 29.4816 52.3615 29.5053C53.9378 29.5172 55.4904 29.6297 57.0074 30.0683C60.48 31.0697 62.4948 33.4638 63.4608 36.8534C64.1837 39.3957 64.3141 42.009 64.32 44.6283C64.3319 50.1512 64.3022 55.6801 64.32 61.2031C64.32 61.7186 64.1778 61.8549 63.6682 61.8549C60.8237 61.8312 57.9734 61.8312 55.1289 61.8549C54.6252 61.8549 54.5185 61.7068 54.5185 61.2327C54.5363 55.9764 54.5363 50.7201 54.5185 45.4579C54.5185 44.1423 54.4297 42.8209 54.0622 41.5409C53.3808 39.1823 51.6919 37.9794 49.2208 38.1097C45.843 38.2875 44.0889 39.9586 43.6622 43.3897C43.5615 44.2075 43.5082 45.0312 43.5141 45.8549C43.5141 50.969 43.5141 56.0831 43.5259 61.1971C43.5259 61.7068 43.4015 61.8549 42.88 61.8549C40.0119 61.8312 37.1437 61.8312 34.2756 61.8549C33.8134 61.8549 33.683 61.7364 33.683 61.2683C33.6948 51.1468 33.6948 41.0194 33.683 30.8979C33.683 30.3942 33.8489 30.2816 34.323 30.2816C37.043 30.2994 39.7689 30.3053 42.4889 30.2816C42.9926 30.2816 43.1171 30.4416 43.1111 30.9157C43.0815 32.1246 43.0993 33.3334 43.0993 34.5483L43.0934 34.5423Z" fill="#4E240E"/>
<path d="M27.4964 46.1104C27.4964 51.1178 27.4905 56.1253 27.5082 61.1327C27.5082 61.6897 27.372 61.8556 26.7971 61.8497C23.9527 61.8201 21.1082 61.826 18.2579 61.8497C17.8016 61.8497 17.6653 61.7371 17.6653 61.269C17.6771 51.1297 17.6771 40.9904 17.6653 30.8453C17.6653 30.4245 17.766 30.2764 18.2105 30.2764C21.0964 30.2941 23.9823 30.3001 26.8682 30.2764C27.4253 30.2764 27.4964 30.4838 27.4964 30.9638C27.4845 36.0127 27.4905 41.0616 27.4905 46.1104H27.4964Z" fill="#4E240E"/>
<path d="M28.2845 20.2315C28.2845 23.3782 25.7363 25.9382 22.5956 25.9382C19.4963 25.9382 16.9245 23.3782 16.9126 20.2789C16.9008 17.15 19.4726 14.5723 22.6075 14.5723C25.7186 14.5723 28.2786 17.1263 28.2845 20.2256V20.2315Z" fill="#4E240E"/>
</g>
<defs>
<clipPath id="clip0_340_402">
<rect width="80" height="80" fill="white"/>
</clipPath>
</defs>
</svg>
