<svg width="80" height="80" viewBox="0 0 80 80" fill="none" xmlns="http://www.w3.org/2000/svg">
<g clip-path="url(#clip0_340_377)">
<path d="M40 80C62.0914 80 80 62.0914 80 40C80 17.9086 62.0914 0 40 0C17.9086 0 0 17.9086 0 40C0 62.0914 17.9086 80 40 80Z" fill="#0157FF"/>
<path d="M43.0933 34.5421C43.7511 33.8014 44.2904 33.0547 44.9659 32.4206C47.04 30.4651 49.4933 29.4814 52.3615 29.5051C53.9378 29.5169 55.4904 29.6295 57.0074 30.068C60.48 31.0695 62.4948 33.4636 63.4607 36.8532C64.1837 39.3954 64.3141 42.0088 64.32 44.628C64.3318 50.151 64.3022 55.6799 64.32 61.2028C64.32 61.7184 64.1778 61.8547 63.6681 61.8547C60.8237 61.831 57.9733 61.831 55.1289 61.8547C54.6252 61.8547 54.5185 61.7065 54.5185 61.2325C54.5363 55.9762 54.5363 50.7199 54.5185 45.4576C54.5185 44.1421 54.4296 42.8206 54.0622 41.5406C53.3807 39.1821 51.6918 37.9791 49.2207 38.1095C45.843 38.2873 44.0889 39.9584 43.6622 43.3895C43.5615 44.2073 43.5081 45.031 43.5141 45.8547C43.5141 50.9688 43.5141 56.0828 43.5259 61.1969C43.5259 61.7065 43.4015 61.8547 42.88 61.8547C40.0118 61.831 37.1437 61.831 34.2755 61.8547C33.8133 61.8547 33.683 61.7362 33.683 61.268C33.6948 51.1465 33.6948 41.0191 33.683 30.8976C33.683 30.3939 33.8489 30.2814 34.323 30.2814C37.043 30.2991 39.7689 30.3051 42.4889 30.2814C42.9926 30.2814 43.117 30.4414 43.1111 30.9154C43.0815 32.1243 43.0993 33.3332 43.0993 34.548L43.0933 34.5421Z" fill="white"/>
<path d="M27.4963 46.1095C27.4963 51.1169 27.4903 56.1243 27.5081 61.1317C27.5081 61.6887 27.3718 61.8547 26.797 61.8487C23.9526 61.8191 21.1081 61.825 18.2578 61.8487C17.8015 61.8487 17.6652 61.7361 17.6652 61.268C17.677 51.1287 17.677 40.9895 17.6652 30.8443C17.6652 30.4235 17.7659 30.2754 18.2103 30.2754C21.0963 30.2932 23.9822 30.2991 26.8681 30.2754C27.4252 30.2754 27.4963 30.4828 27.4963 30.9628C27.4844 36.0117 27.4903 41.0606 27.4903 46.1095H27.4963Z" fill="white"/>
<path d="M28.2844 20.231C28.2844 23.3777 25.7363 25.9377 22.5955 25.9377C19.4963 25.9377 16.9244 23.3777 16.9126 20.2784C16.9007 17.1496 19.4726 14.5718 22.6074 14.5718C25.7185 14.5718 28.2785 17.1259 28.2844 20.2251V20.231Z" fill="white"/>
</g>
<defs>
<clipPath id="clip0_340_377">
<rect width="80" height="80" fill="white"/>
</clipPath>
</defs>
</svg>
