<svg width="790" height="314" viewBox="0 0 790 314" fill="none" xmlns="http://www.w3.org/2000/svg">
<g clip-path="url(#clip0_4_74)">
<path d="M1071.41 50.4279C1071.41 50.4279 1109.34 133.121 1023.14 157.203C936.937 181.343 771.448 -114.899 568.029 50.4279C364.61 -114.899 199.121 181.343 112.92 157.203C26.72 133.121 64.6505 50.4279 64.6505 50.4279C-35.3746 126.215 -45.7141 277.789 226.654 308.777C499.022 339.765 567.971 222.661 567.971 222.661C567.971 222.661 636.92 339.765 909.288 308.777C1181.66 277.789 1171.32 126.215 1071.35 50.4279" fill="#3D352B"/>
<path d="M1071.41 50.428C1154.18 210.591 1011.93 249.355 1011.93 249.355C1045.56 226.085 1061.07 184.767 1061.07 184.767C1001.59 280.343 799.911 246.743 799.911 246.743C854.222 236.414 887.854 215.755 887.854 215.755C755.997 254.519 637.036 171.827 637.036 171.827C670.668 184.767 724.979 187.321 724.979 187.321C671.249 174.96 596.143 131.264 568.087 114.203C540.031 131.264 464.925 174.96 411.195 187.321C411.195 187.321 465.506 184.709 499.138 171.827C499.138 171.827 380.177 254.519 248.32 215.755C248.32 215.755 281.952 236.414 336.263 246.743C336.263 246.743 134.587 280.343 75.106 184.767C75.106 184.767 90.6151 226.085 124.247 249.355C124.247 249.355 -17.9488 210.591 64.7665 50.428C-35.3748 126.215 -45.7142 277.789 226.654 308.777C499.022 339.765 567.971 222.661 567.971 222.661C567.971 222.661 636.92 339.765 909.288 308.777C1181.66 277.789 1171.32 126.215 1071.35 50.428" fill="#2C2620"/>
</g>
<defs>
<clipPath id="clip0_4_74">
<rect width="1136" height="314" fill="white"/>
</clipPath>
</defs>
</svg>
