<svg width="250" height="71" viewBox="0 0 250 71" fill="none" xmlns="http://www.w3.org/2000/svg">
<path d="M42.296 49.992C42.296 54.28 41.4 57.928 39.608 60.936C37.88 63.944 35.48 66.248 32.408 67.848C29.336 69.384 25.848 70.152 21.944 70.152C18.872 70.152 15.992 69.768 13.304 69C10.616 68.296 8.28 67.432 6.296 66.408C4.376 65.384 2.968 64.52 2.072 63.816V47.4H4.184C6.232 49.32 8.696 51.016 11.576 52.488C14.52 53.896 17.176 54.6 19.544 54.6C20.696 54.6 21.656 54.44 22.424 54.12C23.256 53.736 23.896 53.224 24.344 52.584C24.792 51.944 25.016 51.24 25.016 50.472C25.016 49 24.504 47.848 23.48 47.016C22.52 46.12 20.952 45.064 18.776 43.848L13.208 40.872C11.224 39.72 9.24 38.344 7.256 36.744C5.336 35.08 3.736 33 2.456 30.504C1.24 28.008 0.632 24.904 0.632 21.192C0.632 16.776 1.528 13.064 3.32 10.056C5.176 6.984 7.608 4.67999 10.616 3.144C13.688 1.544 17.08 0.743998 20.792 0.743998C23.416 0.743998 25.88 0.999998 28.184 1.512C30.488 2.024 32.6 2.76 34.52 3.72C36.44 4.616 38.072 5.768 39.416 7.17599V23.592H37.304C35.192 21.352 32.792 19.592 30.104 18.312C27.416 16.968 24.92 16.296 22.616 16.296C21.336 16.296 20.216 16.616 19.256 17.256C18.36 17.896 17.912 18.824 17.912 20.04C17.912 21.448 18.616 22.696 20.024 23.784C21.496 24.872 23.512 26.184 26.072 27.72L32.024 31.368C34.2 32.648 36.056 34.152 37.592 35.88C39.128 37.608 40.28 39.624 41.048 41.928C41.88 44.232 42.296 46.92 42.296 49.992ZM47.8423 1.8H64.6423V69H47.8423V1.8ZM72.5923 1.8H89.3923V53.736H104.656V69H72.5923V1.8ZM105.505 1.8H123.169L130.081 52.296H133.536L140.449 1.8H158.017V4.392L145.345 68.904L118.177 69L105.505 4.392V1.8ZM197.164 1.8V17.064H178.924V29.16C180.78 28.52 182.636 28.008 184.492 27.624C186.412 27.176 188.268 26.888 190.06 26.76C191.916 26.632 193.644 26.664 195.244 26.856V41.736L194.188 42.312C192.972 41.864 191.532 41.608 189.868 41.544C188.268 41.416 186.54 41.48 184.684 41.736C182.828 41.928 180.908 42.344 178.924 42.984V53.736H197.164V69H162.124V1.8H197.164ZM203.472 1.8H220.368V69H203.28L203.472 1.8ZM229.008 1.8C232.848 1.8 236.272 2.568 239.28 4.10399C242.352 5.64 244.752 7.944 246.48 11.016C248.208 14.024 249.072 17.832 249.072 22.44C249.072 27.24 248.08 31.24 246.096 34.44C244.176 37.576 241.68 39.944 238.608 41.544C235.536 43.08 232.304 43.848 228.912 43.848H211.92V1.8H229.008ZM220.464 29.544H226.704C227.856 29.544 228.784 29.256 229.488 28.68C230.192 28.104 230.704 27.336 231.024 26.376C231.408 25.352 231.6 24.232 231.6 23.016C231.6 21.864 231.408 20.872 231.024 20.04C230.704 19.144 230.192 18.44 229.488 17.928C228.784 17.352 227.856 17.064 226.704 17.064H220.464V29.544ZM221.616 34.92L237.84 35.112L249.264 66.408V69H231.696L221.616 34.92Z" fill="url(#paint0_linear_52_120)"/>
<defs>
<linearGradient id="paint0_linear_52_120" x1="125" y1="-9.5" x2="125" y2="69" gradientUnits="userSpaceOnUse">
<stop stop-color="#E3E3E3"/>
<stop offset="0.431138" stop-color="#E5E5E5"/>
<stop offset="0.631745" stop-color="#6E6E6E"/>
<stop offset="1" stop-color="#B59090"/>
</linearGradient>
</defs>
</svg>
