<svg width="60" height="60" viewBox="0 0 60 60" fill="none" xmlns="http://www.w3.org/2000/svg">
<path d="M30.7418 8.57031C18.9099 8.57031 9.28329 18.1969 9.28329 30.0289C9.28329 33.6492 10.2028 37.2175 11.9463 40.379L7.90496 50.1564C7.76447 50.4963 7.82977 50.8855 8.07296 51.1605C8.25814 51.3706 8.52238 51.4862 8.79479 51.4862C8.87943 51.4862 8.96493 51.475 9.04872 51.4518L19.8246 48.5009C23.1244 50.4551 26.8895 51.4858 30.7415 51.4858C42.5734 51.4858 52.2 41.8601 52.2 30.0273C52.2004 18.1953 42.5734 8.57089 30.7415 8.57089L30.7418 8.57031ZM30.7418 49.5615C27.1069 49.5615 23.5567 48.5535 20.4764 46.6458C20.323 46.5504 20.1473 46.5014 19.9698 46.5014C19.8848 46.5014 19.7997 46.5126 19.7159 46.5358L10.4348 49.0772L13.9052 40.6803C14.0199 40.4031 13.9984 40.0882 13.848 39.8291C12.1213 36.8584 11.2086 33.4698 11.2086 30.0282C11.2086 19.2574 19.9711 10.4945 30.7423 10.4945C41.5135 10.4945 50.276 19.257 50.276 30.0282C50.276 40.7994 41.5135 49.5619 30.7423 49.5619L30.7418 49.5615Z" fill="white" stroke="white" stroke-width="2"/>
<path d="M39.8515 34.5927L35.1974 32.1613C34.8739 31.9924 34.4829 32.0208 34.1873 32.2348L30.2636 35.0765C28.0624 33.4422 26.7417 31.9834 26.7177 31.9568C26.7031 31.9405 26.6854 31.9285 26.67 31.9134C26.6562 31.8997 26.6451 31.8838 26.6296 31.8705C26.6107 31.8541 25.7088 31.058 24.5677 29.5356L27.4748 25.5213C27.6883 25.2257 27.7171 24.8347 27.5478 24.5112L25.1168 19.8579C24.8714 19.3879 24.2922 19.2053 23.8226 19.4485L19.5157 21.6706C19.1024 21.8838 18.9008 22.362 19.0362 22.8067C21.0246 29.3203 24.862 32.8736 25.3217 33.2826C25.8163 33.8257 30.3681 38.6779 36.9029 40.6728C36.9961 40.7012 37.0907 40.7145 37.1839 40.7145C37.5362 40.7145 37.8705 40.5203 38.0389 40.1933L40.2616 35.8869C40.5043 35.4168 40.3217 34.8381 39.8521 34.5927L39.8515 34.5927ZM21.1229 23.006L23.853 21.5976L25.5651 24.8746L23.4142 27.8453C22.603 26.5361 21.7776 24.918 21.1228 23.006H21.1229ZM36.7035 38.5821C34.9359 37.9613 33.3293 37.1153 31.9449 36.2349L34.8331 34.1428L38.1106 35.855L36.7035 38.5821Z" fill="white" stroke="white" stroke-width="2"/>
</svg>
