<svg width="60" height="60" viewBox="0 0 60 60" fill="none" xmlns="http://www.w3.org/2000/svg">
<path d="M30.7418 8.57071C18.9099 8.57071 9.28326 18.1973 9.28326 30.0293C9.28326 33.6496 10.2027 37.2179 11.9463 40.3794L7.90493 50.1568C7.76444 50.4967 7.82974 50.8859 8.07293 51.1609C8.25811 51.371 8.52235 51.4866 8.79476 51.4866C8.8794 51.4866 8.9649 51.4754 9.04869 51.4522L19.8246 48.5013C23.1244 50.4555 26.8895 51.4862 30.7414 51.4862C42.5734 51.4862 52.2 41.8605 52.2 30.0277C52.2004 18.1957 42.5734 8.57129 30.7414 8.57129L30.7418 8.57071ZM30.7418 49.5619C27.1069 49.5619 23.5566 48.5539 20.4764 46.6461C20.323 46.5508 20.1473 46.5018 19.9698 46.5018C19.8847 46.5018 19.7997 46.513 19.7159 46.5362L10.4348 49.0775L13.9052 40.6807C14.0199 40.4035 13.9984 40.0886 13.848 39.8295C12.1212 36.8588 11.2086 33.4702 11.2086 30.0286C11.2086 19.2578 19.9711 10.4949 30.7423 10.4949C41.5135 10.4949 50.276 19.2574 50.276 30.0286C50.276 40.7998 41.5135 49.5623 30.7423 49.5623L30.7418 49.5619Z" fill="#FFCC01" stroke="#FFCC01" stroke-width="2"/>
<path d="M39.8515 34.5935L35.1974 32.1621C34.8739 31.9933 34.4829 32.0217 34.1873 32.2356L30.2636 35.0774C28.0624 33.443 26.7417 31.9843 26.7177 31.9577C26.7031 31.9413 26.6854 31.9293 26.67 31.9143C26.6562 31.9005 26.6451 31.8846 26.6296 31.8713C26.6107 31.855 25.7088 31.0588 24.5677 29.5365L27.4748 25.5222C27.6883 25.2266 27.7171 24.8356 27.5478 24.512L25.1168 19.8588C24.8714 19.3887 24.2922 19.2061 23.8226 19.4493L19.5157 21.6715C19.1024 21.8846 18.9008 22.3628 19.0362 22.8075C21.0246 29.3212 24.862 32.8744 25.3217 33.2835C25.8163 33.8266 30.3681 38.6787 36.9029 40.6737C36.9961 40.7021 37.0907 40.7154 37.1839 40.7154C37.5362 40.7154 37.8705 40.5212 38.0389 40.1942L40.2616 35.8877C40.5043 35.4177 40.3217 34.8389 39.8521 34.5936L39.8515 34.5935ZM21.1229 23.0069L23.853 21.5984L25.5651 24.8754L23.4142 27.8461C22.603 26.537 21.7776 24.9189 21.1228 23.0069H21.1229ZM36.7035 38.583C34.9359 37.9621 33.3293 37.1161 31.9449 36.2357L34.8331 34.1437L38.1106 35.8558L36.7035 38.583Z" fill="#FFCC01" stroke="#FFCC01" stroke-width="2"/>
</svg>
