<svg width="80" height="80" viewBox="0 0 80 80" fill="none" xmlns="http://www.w3.org/2000/svg">
<g clip-path="url(#clip0_340_417)">
<path d="M40 80C62.0914 80 80 62.0914 80 40C80 17.9086 62.0914 0 40 0C17.9086 0 0 17.9086 0 40C0 62.0914 17.9086 80 40 80Z" fill="#FFCC01"/>
<path d="M65.5526 27.1641C64.9423 24.8708 63.1349 23.0634 60.8356 22.4471C56.6756 21.333 40 21.333 40 21.333C40 21.333 23.3245 21.333 19.1645 22.4471C16.8712 23.0634 15.0637 24.8649 14.4474 27.1641C13.3334 31.3241 13.3334 39.9997 13.3334 39.9997C13.3334 39.9997 13.3334 48.6752 14.4474 52.8352C15.0578 55.1286 16.8652 56.936 19.1645 57.5523C23.3245 58.6663 40 58.6663 40 58.6663C40 58.6663 56.6756 58.6663 60.8356 57.5523C63.1289 56.936 64.9363 55.1345 65.5526 52.8352C66.6667 48.6752 66.6667 39.9997 66.6667 39.9997C66.6667 39.9997 66.6667 31.3241 65.5526 27.1641ZM34.6667 47.9997V31.9997L48.5215 39.9997L34.6667 47.9997Z" fill="#4E240E"/>
</g>
<defs>
<clipPath id="clip0_340_417">
<rect width="80" height="80" fill="white"/>
</clipPath>
</defs>
</svg>
