<svg width="80" height="80" viewBox="0 0 80 80" fill="none" xmlns="http://www.w3.org/2000/svg">
<g clip-path="url(#clip0_340_395)">
<path d="M40 80C62.0914 80 80 62.0914 80 40C80 17.9086 62.0914 0 40 0C17.9086 0 0 17.9086 0 40C0 62.0914 17.9086 80 40 80Z" fill="#DD240A"/>
<path d="M65.5526 27.1644C64.9422 24.871 63.1348 23.0636 60.8356 22.4473C56.6756 21.3333 40 21.3333 40 21.3333C40 21.3333 23.3244 21.3333 19.1644 22.4473C16.8711 23.0636 15.0637 24.8651 14.4474 27.1644C13.3333 31.3244 13.3333 39.9999 13.3333 39.9999C13.3333 39.9999 13.3333 48.6755 14.4474 52.8355C15.0578 55.1288 16.8652 56.9362 19.1644 57.5525C23.3244 58.6666 40 58.6666 40 58.6666C40 58.6666 56.6756 58.6666 60.8356 57.5525C63.1289 56.9362 64.9363 55.1347 65.5526 52.8355C66.6667 48.6755 66.6667 39.9999 66.6667 39.9999C66.6667 39.9999 66.6667 31.3244 65.5526 27.1644ZM34.6667 47.9999V31.9999L48.5215 39.9999L34.6667 47.9999Z" fill="white"/>
</g>
<defs>
<clipPath id="clip0_340_395">
<rect width="80" height="80" fill="white"/>
</clipPath>
</defs>
</svg>
